<svg width="218" height="30" viewBox="0 0 218 30" fill="none" xmlns="http://www.w3.org/2000/svg">
  <path d="M10.7863 23.9298C4.38157 25.0098 -2.30696 13.378 0.773818 6.52349C3.85459 -0.331009 16.7047 -2.44967 20.0692 3.40781C23.3932 9.22374 17.2316 22.8912 10.7863 23.9298Z" fill="#ffbe3e"/>
  <path d="M38.8308 24.1066C37.359 24.1066 36.0219 23.8245 34.8196 23.2602C33.6173 22.6959 32.6016 21.9436 31.7724 21.0031C30.9432 20.0418 30.3524 18.9864 30 17.837L32.2388 16.9906C32.7778 18.5789 33.6173 19.791 34.7574 20.627C35.8975 21.442 37.2553 21.8495 38.8308 21.8495C39.8258 21.8495 40.6964 21.6928 41.4427 21.3793C42.2097 21.0449 42.8005 20.5852 43.2151 20C43.6296 19.4148 43.8369 18.7356 43.8369 17.9624C43.8369 16.813 43.526 15.9248 42.9041 15.2978C42.2822 14.6708 41.3909 14.1902 40.23 13.8558L36.0634 12.6019C34.4257 12.1212 33.1612 11.3166 32.2699 10.1881C31.3992 9.05956 30.9639 7.7743 30.9639 6.33229C30.9639 5.09927 31.2645 4.01254 31.8657 3.0721C32.4668 2.11076 33.2856 1.35841 34.3221 0.815048C35.3793 0.271683 36.5713 0 37.8979 0C39.2868 0 40.5306 0.261233 41.6293 0.783698C42.7486 1.28527 43.6918 1.95402 44.4588 2.78997C45.2258 3.62591 45.7752 4.5559 46.1068 5.57994L43.9302 6.45768C43.4327 5.07837 42.6554 4.03344 41.5982 3.32288C40.5617 2.61233 39.3386 2.25705 37.929 2.25705C37.0377 2.25705 36.2499 2.41379 35.5659 2.72727C34.9025 3.04075 34.3843 3.49007 34.0112 4.07523C33.638 4.6604 33.4515 5.35005 33.4515 6.1442C33.4515 7.10554 33.752 7.97283 34.3532 8.74608C34.9544 9.49843 35.8768 10.0627 37.1206 10.4389L40.7897 11.536C42.6139 12.0794 43.9924 12.8631 44.9252 13.8871C45.8581 14.9112 46.3245 16.1964 46.3245 17.7429C46.3245 18.9969 46.0032 20.1045 45.3606 21.0658C44.7387 22.0063 43.8577 22.7482 42.7176 23.2915C41.5982 23.8349 40.3026 24.1066 38.8308 24.1066Z" fill="#121212"/>
  <path d="M57.1603 23.9185C55.6678 23.9185 54.5173 23.4796 53.7089 22.6019C52.9004 21.7241 52.4962 20.4702 52.4962 18.8401V9.279H49.4179V6.9279H50.1952C50.9 6.9279 51.4597 6.69802 51.8743 6.23824C52.2889 5.75758 52.4962 5.16196 52.4962 4.45141V3.04075H54.8283V6.9279H58.4974V9.279H54.8283V18.8401C54.8283 19.4044 54.9112 19.906 55.077 20.3448C55.2429 20.7628 55.5227 21.0972 55.9166 21.348C56.3312 21.5987 56.8805 21.7241 57.5646 21.7241C57.7304 21.7241 57.9273 21.7137 58.1554 21.6928C58.3834 21.6719 58.5803 21.651 58.7462 21.6301V23.7304C58.4974 23.7931 58.2176 23.8349 57.9066 23.8558C57.5957 23.8976 57.3469 23.9185 57.1603 23.9185Z" fill="#121212"/>
  <path d="M67.3571 24.1066C66.2999 24.1066 65.3567 23.908 64.5275 23.511C63.6983 23.093 63.0453 22.5287 62.5686 21.8182C62.0918 21.1076 61.8534 20.2926 61.8534 19.373C61.8534 18.4953 62.04 17.7012 62.4131 16.9906C62.7862 16.2591 63.3666 15.6426 64.1544 15.1411C64.9421 14.6395 65.9475 14.2842 67.1705 14.0752L73.7003 12.9781V15.1097L67.7302 16.1129C66.5279 16.3218 65.6573 16.7085 65.1183 17.2727C64.6001 17.837 64.3409 18.5057 64.3409 19.279C64.3409 20.0313 64.6311 20.6688 65.2116 21.1912C65.8127 21.7137 66.5797 21.9749 67.5125 21.9749C68.6527 21.9749 69.6477 21.7346 70.4976 21.2539C71.3475 20.7524 72.0108 20.0836 72.4876 19.2476C72.9644 18.4117 73.2028 17.4817 73.2028 16.4577V12.1944C73.2028 11.1912 72.84 10.3762 72.1145 9.74922C71.389 9.12226 70.4458 8.80878 69.2849 8.80878C68.2692 8.80878 67.3778 9.07001 66.6108 9.59248C65.8438 10.094 65.2738 10.7524 64.9006 11.5674L62.7862 10.4075C63.0972 9.69697 63.5843 9.04911 64.2476 8.46395C64.9317 7.87879 65.7091 7.41902 66.5797 7.08464C67.4504 6.72936 68.3521 6.55172 69.2849 6.55172C70.508 6.55172 71.5859 6.79206 72.5187 7.27273C73.4723 7.7534 74.2082 8.42215 74.7264 9.279C75.2654 10.1149 75.5349 11.0867 75.5349 12.1944V23.7304H73.2028V20.3762L73.5448 20.721C73.2546 21.348 72.7986 21.9227 72.1767 22.4451C71.5755 22.9467 70.8604 23.3542 70.0312 23.6677C69.2227 23.9603 68.3314 24.1066 67.3571 24.1066Z" fill="#121212"/>
  <path d="M80.3316 23.7304V6.9279H82.6637V9.68652L82.3528 9.279C82.7466 8.48485 83.3374 7.85789 84.1251 7.39812C84.9336 6.93835 85.9079 6.70846 87.048 6.70846H88.1052V9.05956H86.6438C85.4415 9.05956 84.4775 9.43574 83.752 10.1881C83.0265 10.9404 82.6637 12.0063 82.6637 13.3856V23.7304H80.3316Z" fill="#121212"/>
  <path d="M97.2124 23.9185C95.7199 23.9185 94.5694 23.4796 93.761 22.6019C92.9525 21.7241 92.5483 20.4702 92.5483 18.8401V9.279H89.47V6.9279H90.2473C90.9521 6.9279 91.5118 6.69802 91.9264 6.23824C92.341 5.75758 92.5483 5.16196 92.5483 4.45141V3.04075H94.8804V6.9279H98.5495V9.279H94.8804V18.8401C94.8804 19.4044 94.9633 19.906 95.1291 20.3448C95.2949 20.7628 95.5748 21.0972 95.9686 21.348C96.3832 21.5987 96.9326 21.7241 97.6166 21.7241C97.7825 21.7241 97.9794 21.7137 98.2074 21.6928C98.4355 21.6719 98.6324 21.651 98.7982 21.6301V23.7304C98.5495 23.7931 98.2696 23.8349 97.9587 23.8558C97.6477 23.8976 97.399 23.9185 97.2124 23.9185Z" fill="#121212"/>
  <path d="M108.801 24.1066C107.64 24.1066 106.583 23.8349 105.629 23.2915C104.676 22.7273 103.919 21.954 103.36 20.9718C102.821 19.9687 102.551 18.8192 102.551 17.5235V6.9279H104.883V17.2414C104.883 18.14 105.059 18.9342 105.412 19.6238C105.785 20.2926 106.293 20.815 106.935 21.1912C107.599 21.5674 108.355 21.7555 109.205 21.7555C110.055 21.7555 110.812 21.5674 111.475 21.1912C112.139 20.7942 112.657 20.2403 113.03 19.5298C113.403 18.7983 113.59 17.931 113.59 16.9279V6.9279H115.922V23.7304H113.59V20.4702L114.118 20.5956C113.724 21.6823 113.051 22.5392 112.097 23.1661C111.144 23.7931 110.045 24.1066 108.801 24.1066Z" fill="#121212"/>
  <path d="M120.718 30V6.9279H123.05V10.6897L122.677 10.0313C123.34 8.96552 124.221 8.11912 125.32 7.49216C126.439 6.8652 127.714 6.55172 129.144 6.55172C130.72 6.55172 132.119 6.93835 133.342 7.7116C134.586 8.46395 135.56 9.49843 136.265 10.815C136.99 12.1317 137.353 13.6364 137.353 15.3292C137.353 17.001 136.99 18.5057 136.265 19.8433C135.56 21.1599 134.586 22.2048 133.342 22.9781C132.119 23.7304 130.72 24.1066 129.144 24.1066C127.714 24.1066 126.418 23.7827 125.257 23.1348C124.117 22.466 123.257 21.5256 122.677 20.3135L123.05 19.9687V30H120.718ZM129.02 21.7555C130.139 21.7555 131.134 21.4734 132.005 20.9091C132.896 20.3448 133.591 19.582 134.088 18.6207C134.606 17.6385 134.866 16.5413 134.866 15.3292C134.866 14.0961 134.606 12.999 134.088 12.0376C133.591 11.0763 132.896 10.3135 132.005 9.74922C131.134 9.18495 130.139 8.90282 129.02 8.90282C127.901 8.90282 126.885 9.18495 125.973 9.74922C125.081 10.3135 124.366 11.0867 123.827 12.069C123.309 13.0303 123.05 14.117 123.05 15.3292C123.05 16.5413 123.309 17.6385 123.827 18.6207C124.366 19.582 125.081 20.3448 125.973 20.9091C126.885 21.4734 127.901 21.7555 129.02 21.7555Z" fill="#121212"/>
  <path d="M145.624 23.7304L139.405 0.376174H143.945L148.827 20.2821H147.645L152.745 0.376174H157.129L162.197 20.2821H161.016L165.897 0.376174H170.437L164.218 23.7304H159.368L154.237 4.35737H155.605L150.475 23.7304H145.624Z" fill="#121212"/>
  <path d="M179.682 24.1066C177.94 24.1066 176.417 23.7095 175.111 22.9154C173.805 22.1212 172.789 21.0449 172.064 19.6865C171.338 18.3281 170.975 16.8234 170.975 15.1724C170.975 13.4587 171.338 11.9436 172.064 10.627C172.81 9.28945 173.815 8.23406 175.08 7.46081C176.365 6.68756 177.795 6.30094 179.371 6.30094C180.697 6.30094 181.858 6.52038 182.853 6.95925C183.869 7.39812 184.729 8.00418 185.434 8.77743C186.139 9.55068 186.678 10.4389 187.051 11.442C187.424 12.4242 187.611 13.4901 187.611 14.6395C187.611 14.9321 187.59 15.2351 187.549 15.5486C187.528 15.8621 187.476 16.1338 187.393 16.3636H174.333V13.2288H185.092L183.164 14.7022C183.351 13.7409 183.299 12.884 183.009 12.1317C182.739 11.3793 182.283 10.7837 181.641 10.3448C181.019 9.90596 180.262 9.68652 179.371 9.68652C178.521 9.68652 177.764 9.90596 177.101 10.3448C176.438 10.7628 175.93 11.3898 175.577 12.2257C175.246 13.0408 175.121 14.0334 175.204 15.2038C175.121 16.2487 175.256 17.1787 175.608 17.9937C175.981 18.7879 176.52 19.4044 177.225 19.8433C177.951 20.2821 178.78 20.5016 179.713 20.5016C180.646 20.5016 181.433 20.303 182.076 19.906C182.739 19.5089 183.258 18.976 183.631 18.3072L186.927 19.9373C186.595 20.7524 186.077 21.4734 185.372 22.1003C184.667 22.7273 183.828 23.2184 182.853 23.5737C181.9 23.9289 180.843 24.1066 179.682 24.1066Z" fill="#121212"/>
  <path d="M190.699 23.7304V6.67712H194.523V10.4702L194.212 9.90596C194.606 8.63114 195.218 7.74295 196.047 7.24138C196.897 6.73981 197.912 6.48903 199.094 6.48903H200.089V10.1254H198.628C197.467 10.1254 196.534 10.4911 195.829 11.2226C195.124 11.9331 194.772 12.9363 194.772 14.232V23.7304H190.699Z" fill="#121212"/>
  <path d="M202.328 23.7304V0H206.402V15.5486L204.847 15.0784L212.807 6.67712H217.876L211.626 13.5423L218 23.7304H213.336L207.801 14.8903L210.226 14.3887L205.127 19.906L206.402 17.3981V23.7304H202.328Z" fill="#121212"/>
</svg>
