<?xml version="1.0" encoding="UTF-8"?>
<svg id="Layer_1" data-name="Layer 1" xmlns="http://www.w3.org/2000/svg" viewBox="0 0 960 960">
  <defs>
    <style>
      .cls-1, .cls-2 {
        stroke-width: 0px;
      }

      .cls-2 {
        fill: currentColor;
      }
    </style>
  </defs>
  <path class="cls-2" d="M66.81,460.92h0c6.19,3.46,8.35,11.25,4.82,17.4l-41.38,72.21c-3.53,6.15-11.4,8.34-17.59,4.88h0c-6.19-3.46-8.35-11.25-4.82-17.4l41.38-72.21c3.53-6.15,11.4-8.34,17.59-4.88Z"/>
  <path class="cls-2" d="M156.01,405.55h0c6.19,3.46,8.35,11.25,4.82,17.4l-41.38,72.21c-3.53,6.15-11.4,8.34-17.59,4.88h0c-6.19-3.46-8.35-11.25-4.82-17.4l41.38-72.21c3.53-6.15,11.4-8.34,17.59-4.88Z"/>
  <path class="cls-2" d="M293.26,405.55h0c6.19,3.46,8.35,11.25,4.82,17.4l-41.38,72.21c-3.53,6.15-11.4,8.34-17.59,4.88h0c-6.19-3.46-8.35-11.25-4.82-17.4l41.38-72.21c3.53-6.15,11.4-8.34,17.59-4.88Z"/>
  <path class="cls-2" d="M204.03,460.92h0c6.19,3.46,8.35,11.25,4.82,17.4l-41.38,72.21c-3.53,6.15-11.4,8.34-17.59,4.88h0c-6.19-3.46-8.35-11.25-4.82-17.4l41.38-72.21c3.53-6.15,11.4-8.34,17.59-4.88Z"/>
  <path class="cls-1" d="M397.14,548.06c-8.34,0-15.7-2.02-22.09-6.06-6.26-4.04-11.14-9.84-14.66-17.4-3.52-7.56-5.28-16.49-5.28-26.78s1.76-19.16,5.28-26.59,8.41-13.16,14.66-17.2c6.39-4.04,13.75-6.06,22.09-6.06,7.56,0,14.21,1.82,19.94,5.47,5.86,3.65,9.84,8.41,11.93,14.27h-2.15v-46.33c0-4.95,1.24-8.67,3.71-11.14,2.48-2.61,6.13-3.91,10.95-3.91s8.34,1.3,10.95,3.91c2.61,2.48,3.91,6.19,3.91,11.14v111.24c0,4.82-1.3,8.54-3.91,11.14-2.48,2.61-6.06,3.91-10.75,3.91s-8.34-1.3-10.95-3.91c-2.48-2.61-3.71-6.32-3.71-11.14v-13.29l2.15,7.62c-1.82,6.39-5.73,11.53-11.73,15.44-5.86,3.78-12.64,5.67-20.33,5.67ZM405.93,525.97c4.3,0,8.02-1.04,11.14-3.13s5.6-5.15,7.43-9.19c1.82-4.17,2.74-9.45,2.74-15.84,0-9.51-1.95-16.49-5.86-20.92-3.91-4.56-9.06-6.84-15.44-6.84-4.17,0-7.88.98-11.14,2.93-3.13,1.95-5.6,5.02-7.43,9.19-1.69,4.04-2.54,9.25-2.54,15.64,0,9.51,1.95,16.62,5.86,21.31,3.91,4.56,8.99,6.84,15.25,6.84ZM494.37,547.67c-4.95,0-8.73-1.3-11.34-3.91-2.6-2.61-3.91-6.32-3.91-11.14v-69.4c0-4.82,1.24-8.47,3.71-10.95,2.6-2.61,6.19-3.91,10.75-3.91s8.27,1.3,10.75,3.91c2.48,2.48,3.71,6.13,3.71,10.95v10.17h-1.95c1.56-7.82,5.02-13.88,10.36-18.18,5.34-4.3,12.25-6.71,20.72-7.23,3.26-.26,5.73.59,7.43,2.54,1.82,1.82,2.8,4.89,2.93,9.19.26,4.04-.59,7.23-2.54,9.58-1.82,2.35-4.95,3.78-9.38,4.3l-4.5.39c-7.43.65-12.97,2.8-16.62,6.45-3.52,3.65-5.28,8.93-5.28,15.84v36.36c0,4.82-1.3,8.54-3.91,11.14-2.48,2.61-6.12,3.91-10.95,3.91ZM574.54,547.48c-4.82,0-8.53-1.37-11.14-4.11-2.47-2.87-3.71-6.84-3.71-11.93v-66.86c0-5.21,1.24-9.19,3.71-11.93,2.61-2.87,6.32-4.3,11.14-4.3s8.28,1.43,10.75,4.3c2.61,2.74,3.91,6.71,3.91,11.93v66.86c0,5.08-1.24,9.06-3.71,11.93-2.47,2.74-6.12,4.11-10.95,4.11ZM574.54,432.33c-5.47,0-9.71-1.24-12.71-3.71-2.86-2.61-4.3-6.26-4.3-10.95s1.44-8.47,4.3-10.95c3-2.61,7.23-3.91,12.71-3.91s9.65,1.3,12.51,3.91c2.87,2.48,4.3,6.13,4.3,10.95s-1.43,8.34-4.3,10.95c-2.86,2.48-7.04,3.71-12.51,3.71ZM620.21,545.91c-2.87,0-5.28-.72-7.23-2.15-1.95-1.56-3.26-3.52-3.91-5.86-.65-2.35-.65-4.89,0-7.62.78-2.74,2.28-5.28,4.5-7.62l47.9-57.48v6.84h-42.42c-3.52,0-6.26-.98-8.21-2.93-1.95-1.95-2.93-4.63-2.93-8.02,0-3.65.98-6.39,2.93-8.21,1.95-1.95,4.69-2.93,8.21-2.93h56.5c3.52,0,6.32.78,8.41,2.35,2.08,1.56,3.45,3.52,4.11,5.86.78,2.22.85,4.69.2,7.43-.52,2.61-1.89,5.08-4.11,7.43l-49.07,58.65v-7.62h45.35c7.43,0,11.14,3.65,11.14,10.95,0,3.52-.98,6.26-2.93,8.21-1.95,1.82-4.69,2.74-8.21,2.74h-60.21ZM714.13,545.91c-2.86,0-5.28-.72-7.23-2.15-1.95-1.56-3.25-3.52-3.91-5.86-.65-2.35-.65-4.89,0-7.62.78-2.74,2.28-5.28,4.5-7.62l47.9-57.48v6.84h-42.42c-3.52,0-6.26-.98-8.21-2.93-1.95-1.95-2.93-4.63-2.93-8.02,0-3.65.98-6.39,2.93-8.21,1.95-1.95,4.69-2.93,8.21-2.93h56.5c3.52,0,6.32.78,8.41,2.35,2.09,1.56,3.46,3.52,4.11,5.86.78,2.22.85,4.69.2,7.43-.52,2.61-1.89,5.08-4.11,7.43l-49.07,58.65v-7.62h45.35c7.43,0,11.14,3.65,11.14,10.95,0,3.52-.98,6.26-2.93,8.21-1.95,1.82-4.69,2.74-8.21,2.74h-60.21ZM834.45,548.06c-11.6,0-20.27-3.19-26-9.58-5.73-6.52-8.6-16.16-8.6-28.93v-88.17c0-4.95,1.24-8.67,3.71-11.14,2.6-2.61,6.32-3.91,11.14-3.91s8.27,1.3,10.75,3.91c2.6,2.48,3.91,6.19,3.91,11.14v87c0,5.34,1.11,9.32,3.32,11.93,2.35,2.48,5.41,3.71,9.19,3.71,1.04,0,2.02-.07,2.93-.2.91-.13,1.89-.2,2.93-.2,2.09-.26,3.52.39,4.3,1.95.91,1.43,1.37,4.37,1.37,8.8,0,3.91-.78,6.91-2.35,8.99-1.56,1.95-3.97,3.26-7.23,3.91-1.3.13-2.8.26-4.5.39-1.7.26-3.32.39-4.89.39ZM913.85,548.06c-11.34,0-21.11-2.02-29.32-6.06-8.08-4.17-14.33-9.97-18.77-17.4-4.3-7.56-6.45-16.42-6.45-26.59s2.09-18.57,6.26-26c4.17-7.56,9.97-13.42,17.4-17.59,7.56-4.3,16.09-6.45,25.61-6.45,6.91,0,13.16,1.17,18.77,3.52,5.61,2.22,10.42,5.47,14.47,9.77,4.04,4.17,7.1,9.32,9.19,15.44,2.09,6,3.13,12.71,3.13,20.14,0,2.48-.78,4.37-2.35,5.67-1.56,1.17-3.85,1.76-6.84,1.76h-61.39v-15.25h49.26l-3.13,2.74c0-5.34-.78-9.77-2.35-13.29-1.56-3.65-3.85-6.39-6.84-8.21-2.87-1.82-6.45-2.74-10.75-2.74-4.82,0-8.93,1.11-12.32,3.32-3.39,2.22-6,5.41-7.82,9.58-1.82,4.17-2.74,9.19-2.74,15.05v1.56c0,9.91,2.28,17.2,6.84,21.9,4.69,4.69,11.6,7.04,20.72,7.04,3.13,0,6.71-.39,10.75-1.17s7.82-2.02,11.34-3.71c3-1.43,5.67-1.89,8.02-1.37,2.35.39,4.17,1.43,5.47,3.13,1.3,1.69,2.02,3.65,2.15,5.86.26,2.22-.2,4.43-1.37,6.65-1.17,2.09-3.13,3.84-5.86,5.28-4.43,2.48-9.45,4.3-15.05,5.47-5.47,1.3-10.82,1.95-16.03,1.95Z"/>
</svg>